<svg xmlns="http://www.w3.org/2000/svg" xmlns:xlink="http://www.w3.org/1999/xlink" width="500" zoomAndPan="magnify" viewBox="0 0 375 374.999991" height="500" preserveAspectRatio="xMidYMid meet" version="1.0"><path fill="#ffffff" d="M 186.773438 5.125 C 83.636719 5.125 0 88.746094 0 191.902344 C 0 274.425781 53.515625 344.4375 127.726562 369.132812 C 137.0625 370.863281 140.488281 365.082031 140.488281 360.148438 C 140.488281 355.695312 140.316406 340.980469 140.238281 325.375 C 88.273438 336.671875 77.308594 303.335938 77.308594 303.335938 C 68.8125 281.746094 56.574219 276.007812 56.574219 276.007812 C 39.628906 264.414062 57.851562 264.652344 57.851562 264.652344 C 76.605469 265.972656 86.480469 283.902344 86.480469 283.902344 C 103.140625 312.457031 130.175781 304.199219 140.832031 299.429688 C 142.507812 287.355469 147.351562 279.117188 152.691406 274.453125 C 111.207031 269.730469 67.59375 253.714844 67.59375 182.148438 C 67.59375 161.757812 74.890625 145.09375 86.839844 132.015625 C 84.902344 127.308594 78.507812 108.3125 88.648438 82.585938 C 88.648438 82.585938 104.332031 77.566406 140.027344 101.730469 C 154.921875 97.59375 170.902344 95.519531 186.773438 95.449219 C 202.648438 95.519531 218.636719 97.59375 233.566406 101.730469 C 269.214844 77.566406 284.875 82.585938 284.875 82.585938 C 295.042969 108.3125 288.648438 127.308594 286.707031 132.015625 C 298.683594 145.09375 305.929688 161.753906 305.929688 182.148438 C 305.929688 253.882812 262.234375 269.679688 220.644531 274.304688 C 227.34375 280.101562 233.3125 291.46875 233.3125 308.890625 C 233.3125 333.882812 233.097656 353.996094 233.097656 360.148438 C 233.097656 365.117188 236.460938 370.941406 245.929688 369.109375 C 320.097656 344.382812 373.546875 274.398438 373.546875 191.902344 C 373.546875 88.746094 289.925781 5.125 186.773438 5.125 " fill-opacity="1" fill-rule="nonzero"/><path fill="#ffffff" d="M 69.953125 271.191406 C 69.542969 272.121094 68.082031 272.398438 66.753906 271.761719 C 65.398438 271.152344 64.636719 269.886719 65.074219 268.957031 C 65.480469 268 66.941406 267.734375 68.292969 268.375 C 69.648438 268.984375 70.421875 270.261719 69.953125 271.191406 M 79.140625 279.390625 C 78.25 280.214844 76.507812 279.832031 75.328125 278.527344 C 74.105469 277.222656 73.875 275.484375 74.78125 274.644531 C 75.699219 273.820312 77.386719 274.207031 78.613281 275.507812 C 79.832031 276.824219 80.070312 278.554688 79.140625 279.390625 M 85.445312 289.878906 C 84.296875 290.671875 82.425781 289.925781 81.269531 288.265625 C 80.128906 286.605469 80.128906 284.613281 81.296875 283.816406 C 82.457031 283.019531 84.296875 283.734375 85.46875 285.382812 C 86.613281 287.074219 86.613281 289.066406 85.441406 289.878906 M 96.101562 302.027344 C 95.078125 303.152344 92.898438 302.851562 91.300781 301.3125 C 89.671875 299.804688 89.214844 297.667969 90.242188 296.539062 C 91.277344 295.40625 93.46875 295.726562 95.078125 297.253906 C 96.699219 298.757812 97.195312 300.910156 96.105469 302.027344 M 109.878906 306.128906 C 109.429688 307.589844 107.328125 308.253906 105.210938 307.632812 C 103.101562 306.992188 101.71875 305.277344 102.144531 303.800781 C 102.582031 302.328125 104.691406 301.636719 106.824219 302.300781 C 108.933594 302.9375 110.320312 304.640625 109.878906 306.128906 M 125.558594 307.867188 C 125.609375 309.40625 123.816406 310.683594 121.59375 310.710938 C 119.359375 310.761719 117.554688 309.515625 117.53125 308 C 117.53125 306.445312 119.285156 305.179688 121.515625 305.140625 C 123.738281 305.097656 125.558594 306.335938 125.558594 307.867188 M 140.957031 307.277344 C 141.226562 308.777344 139.679688 310.324219 137.476562 310.734375 C 135.308594 311.128906 133.300781 310.199219 133.023438 308.710938 C 132.753906 307.171875 134.328125 305.628906 136.492188 305.226562 C 138.703125 304.84375 140.675781 305.746094 140.957031 307.277344 " fill-opacity="1" fill-rule="nonzero"/></svg>