<svg xmlns="http://www.w3.org/2000/svg" xmlns:xlink="http://www.w3.org/1999/xlink" width="500" zoomAndPan="magnify" viewBox="0 0 375 374.999991" height="500" preserveAspectRatio="xMidYMid meet" version="1.0"><defs><clipPath id="d318d222cb"><path d="M 0 0 L 374.25 0 L 374.25 375 L 0 375 Z M 0 0 " clip-rule="nonzero"/></clipPath></defs><g clip-path="url(#d318d222cb)"><path fill="#000000" d="M 374.246094 187.445312 C 374.246094 190.507812 374.171875 193.566406 374.023438 196.625 C 373.871094 199.683594 373.648438 202.738281 373.347656 205.785156 C 373.046875 208.832031 372.671875 211.871094 372.222656 214.898438 C 371.773438 217.929688 371.25 220.945312 370.652344 223.949219 C 370.054688 226.953125 369.382812 229.9375 368.640625 232.910156 C 367.894531 235.878906 367.078125 238.832031 366.191406 241.761719 C 365.300781 244.691406 364.339844 247.597656 363.308594 250.480469 C 362.277344 253.367188 361.175781 256.222656 360.003906 259.050781 C 358.832031 261.878906 357.589844 264.679688 356.28125 267.449219 C 354.972656 270.214844 353.59375 272.949219 352.152344 275.652344 C 350.707031 278.351562 349.199219 281.015625 347.625 283.640625 C 346.050781 286.269531 344.414062 288.855469 342.710938 291.402344 C 341.011719 293.949219 339.246094 296.453125 337.421875 298.910156 C 335.597656 301.371094 333.714844 303.785156 331.773438 306.152344 C 329.828125 308.519531 327.832031 310.839844 325.773438 313.105469 C 323.714844 315.375 321.605469 317.59375 319.441406 319.757812 C 317.273438 321.921875 315.058594 324.035156 312.789062 326.089844 C 310.519531 328.148438 308.203125 330.148438 305.835938 332.089844 C 303.46875 334.03125 301.054688 335.917969 298.59375 337.738281 C 296.132812 339.5625 293.628906 341.328125 291.085938 343.027344 C 288.539062 344.730469 285.953125 346.367188 283.324219 347.941406 C 280.699219 349.515625 278.035156 351.023438 275.332031 352.46875 C 272.632812 353.914062 269.898438 355.289062 267.128906 356.597656 C 264.359375 357.90625 261.5625 359.148438 258.734375 360.320312 C 255.902344 361.492188 253.046875 362.597656 250.164062 363.628906 C 247.28125 364.660156 244.375 365.621094 241.445312 366.507812 C 238.511719 367.398438 235.5625 368.214844 232.59375 368.957031 C 229.621094 369.699219 226.632812 370.371094 223.628906 370.96875 C 220.625 371.566406 217.609375 372.089844 214.582031 372.539062 C 211.554688 372.988281 208.515625 373.363281 205.46875 373.664062 C 202.421875 373.964844 199.367188 374.191406 196.308594 374.339844 C 193.25 374.488281 190.1875 374.566406 187.125 374.566406 C 184.0625 374.566406 181.003906 374.488281 177.945312 374.339844 C 174.886719 374.191406 171.832031 373.964844 168.785156 373.664062 C 165.738281 373.363281 162.699219 372.992188 159.667969 372.539062 C 156.640625 372.089844 153.625 371.566406 150.621094 370.96875 C 147.617188 370.371094 144.628906 369.703125 141.660156 368.957031 C 138.6875 368.214844 135.738281 367.398438 132.808594 366.507812 C 129.875 365.621094 126.96875 364.660156 124.085938 363.628906 C 121.203125 362.597656 118.347656 361.492188 115.515625 360.320312 C 112.6875 359.148438 109.890625 357.90625 107.121094 356.597656 C 104.351562 355.289062 101.617188 353.914062 98.917969 352.46875 C 96.214844 351.023438 93.550781 349.515625 90.925781 347.941406 C 88.300781 346.367188 85.710938 344.730469 83.167969 343.027344 C 80.621094 341.328125 78.117188 339.5625 75.65625 337.738281 C 73.195312 335.917969 70.785156 334.03125 68.417969 332.089844 C 66.050781 330.148438 63.730469 328.148438 61.460938 326.089844 C 59.191406 324.035156 56.976562 321.921875 54.808594 319.757812 C 52.644531 317.59375 50.535156 315.375 48.476562 313.105469 C 46.421875 310.839844 44.421875 308.519531 42.476562 306.152344 C 40.535156 303.785156 38.652344 301.371094 36.828125 298.910156 C 35.003906 296.453125 33.242188 293.949219 31.539062 291.402344 C 29.835938 288.855469 28.199219 286.269531 26.625 283.644531 C 25.050781 281.015625 23.542969 278.351562 22.097656 275.652344 C 20.65625 272.949219 19.277344 270.214844 17.96875 267.445312 C 16.660156 264.679688 15.417969 261.878906 14.246094 259.050781 C 13.074219 256.222656 11.972656 253.367188 10.941406 250.480469 C 9.910156 247.597656 8.949219 244.691406 8.0625 241.761719 C 7.171875 238.832031 6.355469 235.878906 5.613281 232.910156 C 4.867188 229.9375 4.195312 226.953125 3.597656 223.949219 C 3.003906 220.945312 2.480469 217.929688 2.027344 214.902344 C 1.578125 211.871094 1.207031 208.832031 0.90625 205.785156 C 0.605469 202.738281 0.378906 199.683594 0.230469 196.625 C 0.078125 193.566406 0.00390625 190.507812 0.00390625 187.445312 C 0.00390625 184.382812 0.078125 181.320312 0.230469 178.261719 C 0.378906 175.203125 0.605469 172.152344 0.90625 169.101562 C 1.207031 166.054688 1.578125 163.015625 2.027344 159.988281 C 2.480469 156.957031 3.003906 153.941406 3.597656 150.9375 C 4.195312 147.933594 4.867188 144.945312 5.613281 141.976562 C 6.355469 139.007812 7.171875 136.054688 8.0625 133.125 C 8.949219 130.195312 9.910156 127.289062 10.941406 124.402344 C 11.972656 121.519531 13.074219 118.664062 14.246094 115.832031 C 15.417969 113.003906 16.660156 110.207031 17.96875 107.4375 C 19.277344 104.671875 20.65625 101.9375 22.097656 99.234375 C 23.542969 96.535156 25.050781 93.871094 26.625 91.242188 C 28.199219 88.617188 29.835938 86.03125 31.539062 83.484375 C 33.242188 80.9375 35.003906 78.433594 36.828125 75.976562 C 38.652344 73.515625 40.535156 71.101562 42.476562 68.734375 C 44.421875 66.367188 46.421875 64.050781 48.476562 61.78125 C 50.535156 59.511719 52.644531 57.292969 54.808594 55.128906 C 56.976562 52.960938 59.191406 50.851562 61.460938 48.796875 C 63.730469 46.738281 66.050781 44.738281 68.417969 42.796875 C 70.785156 40.855469 73.195312 38.96875 75.65625 37.144531 C 78.117188 35.320312 80.621094 33.558594 83.167969 31.859375 C 85.710938 30.15625 88.296875 28.519531 90.925781 26.945312 C 93.550781 25.371094 96.214844 23.859375 98.917969 22.417969 C 101.617188 20.972656 104.351562 19.597656 107.121094 18.289062 C 109.890625 16.980469 112.6875 15.738281 115.515625 14.566406 C 118.347656 13.394531 121.203125 12.292969 124.085938 11.261719 C 126.96875 10.230469 129.875 9.269531 132.808594 8.378906 C 135.738281 7.492188 138.6875 6.675781 141.65625 5.929688 C 144.628906 5.1875 147.617188 4.515625 150.621094 3.917969 C 153.625 3.320312 156.640625 2.796875 159.667969 2.347656 C 162.699219 1.898438 165.738281 1.523438 168.785156 1.222656 C 171.832031 0.925781 174.886719 0.699219 177.945312 0.550781 C 181.003906 0.398438 184.0625 0.324219 187.125 0.324219 C 190.1875 0.324219 193.25 0.398438 196.308594 0.550781 C 199.367188 0.699219 202.421875 0.925781 205.46875 1.222656 C 208.515625 1.523438 211.554688 1.898438 214.582031 2.347656 C 217.609375 2.796875 220.625 3.320312 223.628906 3.917969 C 226.632812 4.515625 229.621094 5.1875 232.589844 5.929688 C 235.5625 6.675781 238.511719 7.492188 241.445312 8.378906 C 244.375 9.269531 247.28125 10.230469 250.164062 11.261719 C 253.046875 12.292969 255.902344 13.394531 258.734375 14.566406 C 261.5625 15.738281 264.359375 16.980469 267.128906 18.289062 C 269.898438 19.597656 272.632812 20.972656 275.332031 22.417969 C 278.035156 23.859375 280.699219 25.371094 283.324219 26.945312 C 285.953125 28.519531 288.539062 30.15625 291.085938 31.859375 C 293.628906 33.558594 296.132812 35.320312 298.59375 37.144531 C 301.054688 38.96875 303.464844 40.855469 305.832031 42.796875 C 308.203125 44.738281 310.519531 46.738281 312.789062 48.796875 C 315.058594 50.851562 317.273438 52.960938 319.441406 55.128906 C 321.605469 57.292969 323.714844 59.511719 325.773438 61.78125 C 327.828125 64.050781 329.828125 66.367188 331.773438 68.734375 C 333.714844 71.101562 335.597656 73.515625 337.421875 75.976562 C 339.246094 78.433594 341.007812 80.9375 342.710938 83.484375 C 344.414062 86.03125 346.050781 88.617188 347.625 91.242188 C 349.199219 93.871094 350.707031 96.535156 352.152344 99.234375 C 353.59375 101.933594 354.972656 104.667969 356.28125 107.4375 C 357.589844 110.207031 358.832031 113.003906 360.003906 115.832031 C 361.175781 118.664062 362.277344 121.519531 363.308594 124.402344 C 364.339844 127.289062 365.300781 130.195312 366.191406 133.125 C 367.078125 136.054688 367.894531 139.003906 368.640625 141.976562 C 369.382812 144.945312 370.054688 147.933594 370.652344 150.9375 C 371.25 153.941406 371.773438 156.957031 372.222656 159.984375 C 372.671875 163.015625 373.046875 166.054688 373.347656 169.101562 C 373.648438 172.148438 373.871094 175.203125 374.023438 178.261719 C 374.171875 181.320312 374.246094 184.382812 374.246094 187.445312 Z M 374.246094 187.445312 " fill-opacity="1" fill-rule="nonzero"/></g><path stroke-linecap="round" transform="matrix(1.115832, 0, 0, 1.115273, -34089.106477, -10412.152836)" fill-opacity="1" fill="#ffffff" fill-rule="evenodd" stroke-linejoin="round" d="M 30640.398774 9422.349327 L 30685.698499 9422.030599 L 30795.699114 9582.119671 L 30750.000303 9581.720385 Z M 30640.398774 9422.349327 " stroke="#ffffff" stroke-width="2.14" stroke-opacity="1" stroke-miterlimit="1.5"/><path stroke-linecap="round" transform="matrix(1.115832, 0, 0, 1.115273, -34089.106477, -10412.152836)" fill-opacity="1" fill="#ffffff" fill-rule="evenodd" stroke-linejoin="round" d="M 30776.802057 9422.030599 L 30790.899583 9422.030599 L 30653.999194 9582.119671 L 30640.398774 9582.119671 Z M 30776.802057 9422.030599 " stroke="#ffffff" stroke-width="2.14" stroke-opacity="1" stroke-miterlimit="1.5"/><path fill="#000000" d="M 121.289062 109.84375 L 144.722656 109.976562 L 253.066406 265.046875 L 229.636719 265.011719 Z M 121.289062 109.84375 " fill-opacity="1" fill-rule="evenodd"/><path fill="#000000" d="M 121.289062 109.84375 L 144.722656 109.976562 L 253.066406 265.046875 L 229.636719 265.011719 Z M 123.074219 110.792969 C 123.074219 110.792969 230.082031 264.074219 230.082031 264.074219 C 230.082031 264.074219 251.285156 264.109375 251.285156 264.109375 L 144.164062 110.914062 Z M 123.074219 110.792969 " fill-opacity="1" fill-rule="evenodd"/></svg>